<svg width="24" height="24" viewBox="0 0 24 24" fill="none" xmlns="http://www.w3.org/2000/svg">
<path d="M21.504 18.3808H19.222C18.359 18.3808 18.099 17.6818 16.552 16.1338C15.2 14.8308 14.629 14.6688 14.287 14.6688C13.814 14.6688 13.685 14.7988 13.685 15.4498V17.5018C13.685 18.0568 13.505 18.3818 12.055 18.3818C10.6483 18.2873 9.28416 17.86 8.07497 17.135C6.86578 16.41 5.84612 15.4081 5.1 14.2118C3.32839 12.0069 2.09571 9.41893 1.5 6.65385C1.5 6.31185 1.63 6.00185 2.282 6.00185H4.562C5.148 6.00185 5.359 6.26285 5.589 6.86585C6.696 10.1238 8.585 12.9578 9.352 12.9578C9.646 12.9578 9.774 12.8278 9.774 12.0948V8.73885C9.677 7.20785 8.864 7.07885 8.864 6.52485C8.87428 6.37869 8.94114 6.24229 9.05037 6.14464C9.15961 6.04698 9.30261 5.99576 9.449 6.00185H13.033C13.523 6.00185 13.685 6.24584 13.685 6.83184V11.3618C13.685 11.8508 13.895 12.0128 14.043 12.0128C14.337 12.0128 14.563 11.8508 15.102 11.3128C16.2574 9.90383 17.2013 8.33401 17.904 6.65285C17.9759 6.451 18.1119 6.27822 18.2912 6.16086C18.4705 6.0435 18.6832 5.98801 18.897 6.00285H21.178C21.862 6.00285 22.007 6.34485 21.862 6.83285C21.0324 8.69126 20.0058 10.4553 18.8 12.0948C18.554 12.4698 18.456 12.6648 18.8 13.1048C19.026 13.4468 19.826 14.1148 20.363 14.7498C21.145 15.5298 21.794 16.4318 22.285 17.4198C22.481 18.0558 22.155 18.3808 21.504 18.3808Z" fill="white"/>
</svg>
